<mxfile host="65bd71144e">
    <diagram id="kgpKYQtTHZ0yAKxKKP6v" name="Page-1">
        <mxGraphModel dx="642" dy="5335" grid="1" gridSize="10" guides="1" tooltips="1" connect="1" arrows="1" fold="1" page="1" pageScale="1" pageWidth="3300" pageHeight="4681" math="0" shadow="0">
            <root>
                <mxCell id="0"/>
                <mxCell id="1" parent="0"/>
                <mxCell id="OSjCju06CQOZ1z3RWE4l-30" value="вектор таблиц" style="rounded=0;whiteSpace=wrap;html=1;align=center;" parent="1" vertex="1">
                    <mxGeometry x="460" y="880" width="120" height="20" as="geometry"/>
                </mxCell>
                <mxCell id="OSjCju06CQOZ1z3RWE4l-33" value="Таблица&lt;br&gt;" style="html=1;align=center;" parent="1" vertex="1">
                    <mxGeometry x="335" y="940" width="110" height="20" as="geometry"/>
                </mxCell>
                <mxCell id="OSjCju06CQOZ1z3RWE4l-36" value="Студент&amp;nbsp;" style="rounded=0;whiteSpace=wrap;html=1;align=center;" parent="1" vertex="1">
                    <mxGeometry x="335" y="980" width="110" height="20" as="geometry"/>
                </mxCell>
                <mxCell id="OSjCju06CQOZ1z3RWE4l-37" value="" style="shape=crossbar;whiteSpace=wrap;html=1;rounded=1;direction=south;align=center;" parent="1" vertex="1">
                    <mxGeometry x="380" y="960" width="20" height="20" as="geometry"/>
                </mxCell>
                <mxCell id="OSjCju06CQOZ1z3RWE4l-38" value="Студент&amp;nbsp;" style="rounded=0;whiteSpace=wrap;html=1;align=center;" parent="1" vertex="1">
                    <mxGeometry x="465" y="980" width="110" height="20" as="geometry"/>
                </mxCell>
                <mxCell id="OSjCju06CQOZ1z3RWE4l-40" value="Студент&amp;nbsp;" style="rounded=0;whiteSpace=wrap;html=1;align=center;" parent="1" vertex="1">
                    <mxGeometry x="210" y="980" width="110" height="20" as="geometry"/>
                </mxCell>
                <mxCell id="OSjCju06CQOZ1z3RWE4l-42" value="" style="endArrow=none;html=1;rounded=0;entryX=0;entryY=0.5;entryDx=0;entryDy=0;" parent="1" target="OSjCju06CQOZ1z3RWE4l-33" edge="1">
                    <mxGeometry width="50" height="50" relative="1" as="geometry">
                        <mxPoint x="260" y="980" as="sourcePoint"/>
                        <mxPoint x="310" y="930" as="targetPoint"/>
                    </mxGeometry>
                </mxCell>
                <mxCell id="OSjCju06CQOZ1z3RWE4l-43" value="" style="endArrow=none;html=1;rounded=0;entryX=1;entryY=0.5;entryDx=0;entryDy=0;exitX=0.5;exitY=0;exitDx=0;exitDy=0;" parent="1" source="OSjCju06CQOZ1z3RWE4l-38" target="OSjCju06CQOZ1z3RWE4l-33" edge="1">
                    <mxGeometry width="50" height="50" relative="1" as="geometry">
                        <mxPoint x="410" y="1010" as="sourcePoint"/>
                        <mxPoint x="460" y="960" as="targetPoint"/>
                    </mxGeometry>
                </mxCell>
                <mxCell id="OSjCju06CQOZ1z3RWE4l-44" value="Массив оценок" style="rounded=0;whiteSpace=wrap;html=1;align=center;" parent="1" vertex="1">
                    <mxGeometry x="465" y="1020" width="110" height="20" as="geometry"/>
                </mxCell>
                <mxCell id="OSjCju06CQOZ1z3RWE4l-45" value="" style="shape=crossbar;whiteSpace=wrap;html=1;rounded=1;direction=south;align=center;" parent="1" vertex="1">
                    <mxGeometry x="510" y="1000" width="20" height="20" as="geometry"/>
                </mxCell>
                <mxCell id="OSjCju06CQOZ1z3RWE4l-46" value="Массив оценок" style="rounded=0;whiteSpace=wrap;html=1;align=center;" parent="1" vertex="1">
                    <mxGeometry x="335" y="1020" width="110" height="20" as="geometry"/>
                </mxCell>
                <mxCell id="OSjCju06CQOZ1z3RWE4l-47" value="" style="shape=crossbar;whiteSpace=wrap;html=1;rounded=1;direction=south;align=center;" parent="1" vertex="1">
                    <mxGeometry x="380" y="1000" width="20" height="20" as="geometry"/>
                </mxCell>
                <mxCell id="OSjCju06CQOZ1z3RWE4l-48" value="Массив оценок&lt;br&gt;" style="rounded=0;whiteSpace=wrap;html=1;align=center;" parent="1" vertex="1">
                    <mxGeometry x="210" y="1020" width="110" height="20" as="geometry"/>
                </mxCell>
                <mxCell id="OSjCju06CQOZ1z3RWE4l-49" value="" style="shape=crossbar;whiteSpace=wrap;html=1;rounded=1;direction=south;align=center;" parent="1" vertex="1">
                    <mxGeometry x="255" y="1000" width="20" height="20" as="geometry"/>
                </mxCell>
                <mxCell id="OSjCju06CQOZ1z3RWE4l-50" value="" style="endArrow=none;html=1;rounded=0;entryX=0;entryY=0.5;entryDx=0;entryDy=0;" parent="1" target="OSjCju06CQOZ1z3RWE4l-30" edge="1">
                    <mxGeometry width="50" height="50" relative="1" as="geometry">
                        <mxPoint x="390" y="940" as="sourcePoint"/>
                        <mxPoint x="440" y="890" as="targetPoint"/>
                    </mxGeometry>
                </mxCell>
                <mxCell id="OSjCju06CQOZ1z3RWE4l-51" value="" style="endArrow=none;html=1;rounded=0;entryX=1;entryY=0.5;entryDx=0;entryDy=0;exitX=0.5;exitY=0;exitDx=0;exitDy=0;exitPerimeter=0;" parent="1" source="OSjCju06CQOZ1z3RWE4l-53" target="OSjCju06CQOZ1z3RWE4l-30" edge="1">
                    <mxGeometry width="50" height="50" relative="1" as="geometry">
                        <mxPoint x="650" y="940" as="sourcePoint"/>
                        <mxPoint x="680" y="890" as="targetPoint"/>
                    </mxGeometry>
                </mxCell>
                <mxCell id="OSjCju06CQOZ1z3RWE4l-53" value="" style="verticalLabelPosition=bottom;verticalAlign=top;html=1;shape=mxgraph.basic.smiley" parent="1" vertex="1">
                    <mxGeometry x="620" y="940" width="100" height="100" as="geometry"/>
                </mxCell>
                <mxCell id="OSjCju06CQOZ1z3RWE4l-65" value="Таблица учащихся" style="swimlane;fontStyle=1;align=center;verticalAlign=top;childLayout=stackLayout;horizontal=1;startSize=26;horizontalStack=0;resizeParent=1;resizeParentMax=0;resizeLast=0;collapsible=1;marginBottom=0;" parent="1" vertex="1">
                    <mxGeometry x="559" y="200" width="200" height="230" as="geometry"/>
                </mxCell>
                <mxCell id="OSjCju06CQOZ1z3RWE4l-66" value="+ table: Junior*&#10;+ size: int&#10;+ category: char" style="text;strokeColor=none;fillColor=default;align=left;verticalAlign=top;spacingLeft=4;spacingRight=4;overflow=hidden;rotatable=0;points=[[0,0.5],[1,0.5]];portConstraint=eastwest;" parent="OSjCju06CQOZ1z3RWE4l-65" vertex="1">
                    <mxGeometry y="26" width="200" height="64" as="geometry"/>
                </mxCell>
                <mxCell id="OSjCju06CQOZ1z3RWE4l-67" value="" style="line;strokeWidth=1;fillColor=none;align=left;verticalAlign=middle;spacingTop=-1;spacingLeft=3;spacingRight=3;rotatable=0;labelPosition=right;points=[];portConstraint=eastwest;" parent="OSjCju06CQOZ1z3RWE4l-65" vertex="1">
                    <mxGeometry y="90" width="200" height="8" as="geometry"/>
                </mxCell>
                <mxCell id="OSjCju06CQOZ1z3RWE4l-68" value="+ TableStudents()&#10;+ TableStudents(size: int, category: char)&#10;+ getStudent(value: const int) : Junior&amp;:&#10;+ getStudent(surname: string, initials:string)&#10;+ setStudent(value: Junior&amp;)&#10;+ getSize(): int&#10;+ getIndex(surname: string, initials: string): int&#10;+ binSearch(index: int) : Junior&amp;&#10; " style="text;strokeColor=none;fillColor=default;align=left;verticalAlign=top;spacingLeft=4;spacingRight=4;overflow=hidden;rotatable=0;points=[[0,0.5],[1,0.5]];portConstraint=eastwest;" parent="OSjCju06CQOZ1z3RWE4l-65" vertex="1">
                    <mxGeometry y="98" width="200" height="132" as="geometry"/>
                </mxCell>
                <mxCell id="OSjCju06CQOZ1z3RWE4l-69" value="Таблица группы" style="swimlane;fontStyle=1;align=center;verticalAlign=top;childLayout=stackLayout;horizontal=1;startSize=26;horizontalStack=0;resizeParent=1;resizeParentMax=0;resizeLast=0;collapsible=1;marginBottom=0;" parent="1" vertex="1">
                    <mxGeometry x="305" y="380" width="160" height="250" as="geometry"/>
                </mxCell>
                <mxCell id="OSjCju06CQOZ1z3RWE4l-70" value="+ table: TableStudents*&#10;+ maxRiders: int&#10;+ index: int &#10;+ category: char" style="text;strokeColor=none;fillColor=default;align=left;verticalAlign=top;spacingLeft=4;spacingRight=4;overflow=hidden;rotatable=0;points=[[0,0.5],[1,0.5]];portConstraint=eastwest;" parent="OSjCju06CQOZ1z3RWE4l-69" vertex="1">
                    <mxGeometry y="26" width="160" height="74" as="geometry"/>
                </mxCell>
                <mxCell id="OSjCju06CQOZ1z3RWE4l-71" value="" style="line;strokeWidth=1;fillColor=none;align=left;verticalAlign=middle;spacingTop=-1;spacingLeft=3;spacingRight=3;rotatable=0;labelPosition=right;points=[];portConstraint=eastwest;" parent="OSjCju06CQOZ1z3RWE4l-69" vertex="1">
                    <mxGeometry y="100" width="160" height="8" as="geometry"/>
                </mxCell>
                <mxCell id="OSjCju06CQOZ1z3RWE4l-72" value="+ TableGroup()&#10;+ TableGroup(size: int, category: char, index: int)&#10;+ getIndex() : int&#10;+ getMaxRiders() : int&#10;+ getType(): char&#10;+ getStudentByIndex(const int index): Junior&amp;&#10;+ setStudent(surname: string, initiasls: string, sum: int, type: char): &#10;+ printTable(s: ostream) : friend ostream&amp;&#10;+ " style="text;strokeColor=none;fillColor=default;align=left;verticalAlign=top;spacingLeft=4;spacingRight=4;overflow=hidden;rotatable=0;points=[[0,0.5],[1,0.5]];portConstraint=eastwest;" parent="OSjCju06CQOZ1z3RWE4l-69" vertex="1">
                    <mxGeometry y="108" width="160" height="142" as="geometry"/>
                </mxCell>
                <mxCell id="OSjCju06CQOZ1z3RWE4l-73" value="Приложение" style="swimlane;fontStyle=1;align=center;verticalAlign=top;childLayout=stackLayout;horizontal=1;startSize=26;horizontalStack=0;resizeParent=1;resizeParentMax=0;resizeLast=0;collapsible=1;marginBottom=0;" parent="1" vertex="1">
                    <mxGeometry x="50" y="200" width="190" height="240" as="geometry"/>
                </mxCell>
                <mxCell id="OSjCju06CQOZ1z3RWE4l-74" value="+ finalTable: TableGroup*&#10;+ size: int" style="text;strokeColor=none;fillColor=default;align=left;verticalAlign=top;spacingLeft=4;spacingRight=4;overflow=hidden;rotatable=0;points=[[0,0.5],[1,0.5]];portConstraint=eastwest;" parent="OSjCju06CQOZ1z3RWE4l-73" vertex="1">
                    <mxGeometry y="26" width="190" height="54" as="geometry"/>
                </mxCell>
                <mxCell id="OSjCju06CQOZ1z3RWE4l-75" value="" style="line;strokeWidth=1;fillColor=none;align=left;verticalAlign=middle;spacingTop=-1;spacingLeft=3;spacingRight=3;rotatable=0;labelPosition=right;points=[];portConstraint=eastwest;" parent="OSjCju06CQOZ1z3RWE4l-73" vertex="1">
                    <mxGeometry y="80" width="190" height="8" as="geometry"/>
                </mxCell>
                <mxCell id="OSjCju06CQOZ1z3RWE4l-76" value="+ ConsoleAplication()&#10;+ ConsoleAplication(size: int, type: char)&#10;+ SetStudent(type: char, sum: int, surname: string initial, indexG: int)&#10;+ lvlUp(surname: string, initials: string)&#10;+ lvlUp(indexG: int)&#10;+ getMedian(indexG : int) : double&#10;+ whellStudent()&#10;" style="text;strokeColor=none;fillColor=default;align=left;verticalAlign=top;spacingLeft=4;spacingRight=4;overflow=hidden;rotatable=0;points=[[0,0.5],[1,0.5]];portConstraint=eastwest;" parent="OSjCju06CQOZ1z3RWE4l-73" vertex="1">
                    <mxGeometry y="88" width="190" height="152" as="geometry"/>
                </mxCell>
                <mxCell id="OSjCju06CQOZ1z3RWE4l-78" value="Младшекурсник&#10;" style="swimlane;fontStyle=1;align=center;verticalAlign=top;childLayout=stackLayout;horizontal=1;startSize=26;horizontalStack=0;resizeParent=1;resizeParentMax=0;resizeLast=0;collapsible=1;marginBottom=0;" parent="1" vertex="1">
                    <mxGeometry x="560" y="-120" width="198" height="250" as="geometry"/>
                </mxCell>
                <mxCell id="OSjCju06CQOZ1z3RWE4l-79" value="+ rating: double*&#10;+ surname: string&#10;+ initial: string&#10;+ sumOfrating: int&#10;+ category: char" style="text;strokeColor=none;fillColor=default;align=left;verticalAlign=top;spacingLeft=4;spacingRight=4;overflow=hidden;rotatable=0;points=[[0,0.5],[1,0.5]];portConstraint=eastwest;" parent="OSjCju06CQOZ1z3RWE4l-78" vertex="1">
                    <mxGeometry y="26" width="198" height="84" as="geometry"/>
                </mxCell>
                <mxCell id="OSjCju06CQOZ1z3RWE4l-80" value="" style="line;strokeWidth=1;fillColor=none;align=left;verticalAlign=middle;spacingTop=-1;spacingLeft=3;spacingRight=3;rotatable=0;labelPosition=right;points=[];portConstraint=eastwest;" parent="OSjCju06CQOZ1z3RWE4l-78" vertex="1">
                    <mxGeometry y="110" width="198" height="8" as="geometry"/>
                </mxCell>
                <mxCell id="OSjCju06CQOZ1z3RWE4l-81" value="+ Junior()&#10;+ Junior(surname: string, initials: string, sum: int)&#10;+ getCategory(): char&#10;+ getRating(): double*&#10;+ setRating(rating:double, &#10;index:int): Junior&amp;&#10;+ setSurname(surname: string)&#10;+ setInitals(surname: initials)&#10;+ setCategories(type: char)&#10;&#10;" style="text;strokeColor=none;fillColor=default;align=left;verticalAlign=top;spacingLeft=4;spacingRight=4;overflow=hidden;rotatable=0;points=[[0,0.5],[1,0.5]];portConstraint=eastwest;" parent="OSjCju06CQOZ1z3RWE4l-78" vertex="1">
                    <mxGeometry y="118" width="198" height="132" as="geometry"/>
                </mxCell>
                <mxCell id="OSjCju06CQOZ1z3RWE4l-85" value="Extends" style="endArrow=block;endSize=16;endFill=0;html=1;rounded=0;exitX=0.994;exitY=0.22;exitDx=0;exitDy=0;exitPerimeter=0;" parent="1" source="OSjCju06CQOZ1z3RWE4l-87" edge="1">
                    <mxGeometry width="160" relative="1" as="geometry">
                        <mxPoint x="278.72" y="-37.74000000000001" as="sourcePoint"/>
                        <mxPoint x="560" y="-60" as="targetPoint"/>
                    </mxGeometry>
                </mxCell>
                <mxCell id="OSjCju06CQOZ1z3RWE4l-87" value="&lt;p style=&quot;margin: 0px ; margin-top: 4px ; text-align: center&quot;&gt;&lt;b&gt;Старший курс&lt;/b&gt;&lt;/p&gt;&lt;hr size=&quot;1&quot;&gt;&lt;p style=&quot;margin: 0px ; margin-left: 4px&quot;&gt;+ Senior()&lt;/p&gt;&lt;p style=&quot;margin: 0px ; margin-left: 4px&quot;&gt;+ themeUIR: string&lt;/p&gt;&lt;p style=&quot;margin: 0px ; margin-left: 4px&quot;&gt;+ placeUIR: string&lt;/p&gt;&lt;p style=&quot;margin: 0px ; margin-left: 4px&quot;&gt;+ numberteacher: double&lt;/p&gt;&lt;hr size=&quot;1&quot;&gt;&lt;p style=&quot;margin: 0px ; margin-left: 4px&quot;&gt;+ Senior()&lt;/p&gt;&lt;p style=&quot;margin: 0px ; margin-left: 4px&quot;&gt;+ Senior(surname: string, initials: string, sum: int)&lt;/p&gt;&lt;p style=&quot;margin: 0px ; margin-left: 4px&quot;&gt;+ Senior(&lt;/p&gt;surname: string, initials: string, sum: iint, numberTeacher: double, themeUIR: string, placeUIR: string&amp;nbsp;&lt;br&gt;&lt;p style=&quot;margin: 0px ; margin-left: 4px&quot;&gt;+ getThemeUIR(): string&lt;/p&gt;&lt;p style=&quot;margin: 0px ; margin-left: 4px&quot;&gt;+ setThemeUIR(value: string)&lt;/p&gt;&lt;p style=&quot;margin: 0px ; margin-left: 4px&quot;&gt;+ getPlaceUIR(): string&lt;/p&gt;&lt;p style=&quot;margin: 0px ; margin-left: 4px&quot;&gt;+ setPlaceUIR(value: string)&lt;/p&gt;&lt;p style=&quot;margin: 0px ; margin-left: 4px&quot;&gt;+ getNumber() : double&lt;/p&gt;&lt;p style=&quot;margin: 0px ; margin-left: 4px&quot;&gt;+ setNumber(value: double)&lt;/p&gt;" style="verticalAlign=top;align=left;overflow=fill;fontSize=12;fontFamily=Helvetica;html=1;fillColor=default;" parent="1" vertex="1">
                    <mxGeometry x="120" y="-120" width="160" height="270" as="geometry"/>
                </mxCell>
                <mxCell id="OSjCju06CQOZ1z3RWE4l-98" value="" style="endArrow=diamondThin;endFill=1;endSize=24;html=1;rounded=0;entryX=1;entryY=0;entryDx=0;entryDy=0;exitX=0;exitY=0;exitDx=0;exitDy=0;" parent="1" source="OSjCju06CQOZ1z3RWE4l-69" target="OSjCju06CQOZ1z3RWE4l-73" edge="1">
                    <mxGeometry width="160" relative="1" as="geometry">
                        <mxPoint x="360" y="320" as="sourcePoint"/>
                        <mxPoint x="520" y="320" as="targetPoint"/>
                    </mxGeometry>
                </mxCell>
                <mxCell id="OSjCju06CQOZ1z3RWE4l-99" value="" style="endArrow=diamondThin;endFill=0;endSize=24;html=1;rounded=0;entryX=1;entryY=0.088;entryDx=0;entryDy=0;entryPerimeter=0;exitX=-0.005;exitY=0.333;exitDx=0;exitDy=0;exitPerimeter=0;" parent="1" source="OSjCju06CQOZ1z3RWE4l-68" target="OSjCju06CQOZ1z3RWE4l-69" edge="1">
                    <mxGeometry width="160" relative="1" as="geometry">
                        <mxPoint x="510" y="470" as="sourcePoint"/>
                        <mxPoint x="560" y="380" as="targetPoint"/>
                    </mxGeometry>
                </mxCell>
                <mxCell id="OSjCju06CQOZ1z3RWE4l-100" value="" style="endArrow=diamondThin;endFill=0;endSize=24;html=1;rounded=0;entryX=0.5;entryY=0;entryDx=0;entryDy=0;exitX=0.5;exitY=1;exitDx=0;exitDy=0;" parent="1" source="OSjCju06CQOZ1z3RWE4l-78" target="OSjCju06CQOZ1z3RWE4l-65" edge="1">
                    <mxGeometry width="160" relative="1" as="geometry">
                        <mxPoint x="743" y="129.99600000000012" as="sourcePoint"/>
                        <mxPoint x="650" y="190.04" as="targetPoint"/>
                    </mxGeometry>
                </mxCell>
            </root>
        </mxGraphModel>
    </diagram>
</mxfile>